#!OML:ASF H:\Terrain\Patient Classification 1\Animal1\Tuesday\Animal1.ASF
:FULLY-SPECIFIED
:DEGREES
1208
root 8.936 15.5746 -16.4593 -348.884 -5.77362 -4.11118
lowerback 15.5649 0.200647 -0.0953321
upperback 7.81713 0.1868 -1.5628
thorax -0.440198 0.107474 -1.60967
lowerneck -11.6573 2.7101 -0.968406
upperneck -7.8123 3.77558 1.18556
head -0.55728 1.93007 0.627478
rclavicle -1.90833e-014 -1.51076e-014
rhumerus -6.61426 32.4504 -1.38566
rradius 30.5928
rwrist -45.2549
rhand 6.54887 11.7102
rfingers 7.12502
rthumb 31.8462 -15.5265
lclavicle -1.90833e-014 -1.51076e-014
lhumerus 0.270395 -18.7027 3.54835
lradius 32.0478
lwrist 2.18188
lhand 10.229 57.5902
lfingers 7.12502
lthumb 35.3435 84.0653
rfemur -39.7005 -13.4493 18.8999
rtibia 54.5655
rfoot -9.65569 -20.1337
rtoes 14.0465
lfemur -45.3859 11.7235 -19.2317
ltibia 45.9637
lfoot -13.35 10.2161
ltoes 4.31095
1209
root 8.91582 15.5663 -16.4315 -348.832 -5.67866 -4.21455
lowerback 15.5698 0.294319 -0.0812219
upperback 7.97048 0.312859 -1.5454
thorax -0.276749 0.171196 -1.61859
lowerneck -11.6711 2.64592 -1.37885
upperneck -7.54124 3.74287 1.42037
head -0.481027 1.92587 0.770828
rclavicle 5.56597e-015 -2.3059e-014
rhumerus -6.71142 33.0502 -1.48635
rradius 30.8939
rwrist -45.6838
rhand 6.86889 12.5757
rfingers 7.12502
rthumb 32.1509 -14.5999
lclavicle 5.56597e-015 -2.3059e-014
lhumerus 0.462352 -20.3377 3.21988
lradius 32.946
lwrist 3.28871
lhand 10.8796 56.9815
lfingers 7.12502
lthumb 35.9601 83.3078
rfemur -39.6006 -12.1492 18.1809
rtibia 52.4693
rfoot -9.09638 -21.0201
rtoes 12.4624
lfemur -45.5421 11.9541 -19.1368
ltibia 46.2635
lfoot -13.5043 9.97675
ltoes 4.51432
1210
root 8.89308 15.551 -16.4006 -348.697 -5.51699 -4.48067
lowerback 15.423 0.344148 0.132138
upperback 8.07018 0.409832 -1.48225
thorax -0.0899791 0.225504 -1.6861
lowerneck -11.4016 2.68771 -1.37764
upperneck -7.26828 3.7907 1.28052
head -0.43643 1.94872 0.726562
rclavicle 7.95139e-016 7.95139e-016
rhumerus -6.80593 34.0177 -1.54057
rradius 31.4169
rwrist -46.2737
rhand 7.43665 13.0925
rfingers 7.12502
rthumb 32.6912 -13.9724
lclavicle 7.95139e-016 7.95139e-016
lhumerus 0.356019 -21.9888 3.05421
lradius 34.047
lwrist 4.07212
lhand 11.0328 55.7674
lfingers 7.12502
lthumb 36.1053 82.0579
rfemur -39.4455 -10.7997 17.5701
rtibia 50.2833
rfoot -9.50474 -21.6706
rtoes 12.8523
lfemur -45.7818 12.2485 -18.8955
ltibia 46.5349
lfoot -13.604 9.6248
ltoes 5.0145
1211
root 8.86858 15.5394 -16.3653 -348.694 -5.3312 -4.25498
lowerback 15.3011 0.400464 -0.0666859
upperback 8.23045 0.45965 -1.58
thorax 0.144895 0.248318 -1.68182
lowerneck -11.2068 2.70554 -1.18361
upperneck -6.97333 3.78295 1.03386
head -0.367388 1.93864 0.617481
rclavicle 7.95139e-016 6.36111e-015
rhumerus -7.07773 35.2326 -1.73661
rradius 32.1321
rwrist -47.2216
rhand 7.92628 12.7129
rfingers 7.12502
rthumb 33.1569 -14.254
lclavicle 7.95139e-016 6.36111e-015
lhumerus 0.301483 -23.735 2.80383
lradius 35.3177
lwrist 5.00738
lhand 11.0739 54.9749
lfingers 7.12502
lthumb 36.1442 81.2558
rfemur -39.1319 -9.54742 16.3555
rtibia 48.0406
rfoot -10.2738 -22.156
rtoes 15.3467
lfemur -45.822 12.372 -19.1578
ltibia 46.7467
lfoot -13.8818 9.32237
ltoes 5.86047
1212
root 8.84281 15.5386 -16.3346 -348.803 -5.13634 -3.98483
lowerback 15.4057 0.477381 -0.239235
upperback 8.4076 0.536858 -1.75653
thorax 0.281041 0.286704 -1.7812
lowerneck -11.2113 2.67329 -1.05864
upperneck -6.71062 3.72512 1.02414
head -0.28172 1.90712 0.595363
rclavicle 3.97569e-015 1.19271e-014
rhumerus -7.52721 36.2336 -2.23222
rradius 32.7039
rwrist -47.8416
rhand 8.35095 12.9467
rfingers 7.12502
rthumb 33.5606 -13.9335
lclavicle 3.97569e-015 1.19271e-014
lhumerus 0.555975 -25.5773 2.33562
lradius 36.6037
lwrist 6.24802
lhand 11.6079 54.1555
lfingers 7.12502
lthumb 36.6497 80.3097
rfemur -38.6593 -7.85514 14.9011
rtibia 45.7494
rfoot -11.2566 -22.8399
rtoes 19.1996
lfemur -45.734 12.5898 -19.491
ltibia 46.8783
lfoot -14.0887 9.07312
ltoes 4.99721
1213
root 8.81491 15.5371 -16.3062 -348.902 -4.78461 -4.0161
lowerback 15.5936 0.488069 -0.0838024
upperback 8.55551 0.570464 -1.83194
thorax 0.343757 0.311659 -1.95474
lowerneck -11.1368 2.75432 -0.834372
upperneck -6.59837 3.80751 0.949023
head -0.254502 1.94378 0.5376
rclavicle 3.18055e-015 3.18055e-015
rhumerus -7.79181 37.3933 -2.62
rradius 33.2594
rwrist -48.6004
rhand 9.03692 13.1649
rfingers 7.12502
rthumb 34.2123 -13.5715
lclavicle 3.18055e-015 3.18055e-015
lhumerus 0.826468 -27.3196 1.87961
lradius 37.9385
lwrist 7.59968
lhand 12.4615 53.255
lfingers 7.12502
lthumb 37.4571 79.1999
rfemur -38.0596 -5.93179 13.6872
rtibia 43.4459
rfoot -12.1504 -23.8009
rtoes 21.6304
lfemur -45.6491 12.8197 -19.4932
ltibia 46.9273
lfoot -14.0005 8.81006
ltoes 2.74909
1214
root 8.78707 15.5309 -16.2761 -349.073 -4.33549 -3.93055
lowerback 15.7934 0.448546 -0.0260983
upperback 8.72019 0.527771 -1.86015
thorax 0.414126 0.294859 -2.01238
lowerneck -10.9317 2.79356 -0.933627
upperneck -6.5387 3.8734 1.03957
head -0.272484 1.97973 0.58068
rclavicle 7.95139e-016 -4.37326e-014
rhumerus -7.76629 38.7674 -2.67738
rradius 34.0608
rwrist -49.8162
rhand 9.97329 12.0888
rfingers 7.12502
rthumb 35.101 -14.4436
lclavicle 7.95139e-016 -4.37326e-014
lhumerus 0.87909 -28.875 1.63614
lradius 39.5012
lwrist 8.96925
lhand 13.1343 52.6476
lfingers 7.12502
lthumb 38.0927 78.4216
rfemur -37.3594 -4.354 12.4181
rtibia 41.1866
rfoot -12.4797 -24.8415
rtoes 20.6827
lfemur -45.443 12.7972 -19.5191
ltibia 46.9619
lfoot -14.0959 8.45476
ltoes 2.93447
1215
root 8.7589 15.5276 -16.2473 -349.306 -4.00134 -3.55695
lowerback 15.9856 0.4599 -0.284845
upperback 8.89304 0.509072 -1.9538
thorax 0.496084 0.280714 -1.96341
lowerneck -10.8323 2.72375 -1.38286
upperneck -6.24745 3.83618 1.46938
head -0.212019 1.97319 0.789064
rclavicle -1.35174e-014 2.94201e-014
rhumerus -7.86934 40.3388 -2.8015
rradius 34.8409
rwrist -50.7778
rhand 9.84155 12.7701
rfingers 7.12502
rthumb 34.976 -13.7916
lclavicle -1.35174e-014 2.94201e-014
lhumerus 0.94552 -30.305 1.49735
lradius 41.249
lwrist 10.5379
lhand 13.345 52.4433
lfingers 7.12502
lthumb 38.2916 78.1626
rfemur -36.7204 -2.81862 10.8486
rtibia 39.0297
rfoot -11.6892 -26.1952
rtoes 16.7788
lfemur -45.196 12.7996 -19.8539
ltibia 47.0511
lfoot -14.3921 8.10436
ltoes 3.52137
1216
root 8.72592 15.5182 -16.2214 -349.423 -3.70761 -3.27773
lowerback 16.0465 0.517097 -0.505191
upperback 9.08663 0.557289 -2.05184
thorax 0.671837 0.301325 -1.94932
lowerneck -10.8321 2.6869 -1.43482
upperneck -6.01492 3.79546 1.67618
head -0.142952 1.95574 0.864026
rclavicle 5.56597e-015 -8.74653e-015
rhumerus -8.16007 41.3966 -3.16268
rradius 35.6494
rwrist -51.5665
rhand 9.80329 13.6161
rfingers 7.12502
rthumb 34.9397 -12.954
lclavicle 5.56597e-015 -8.74653e-015
lhumerus 1.18498 -31.5628 1.30419
lradius 43.0907
lwrist 12.1834
lhand 13.2757 52.4596
lfingers 7.12502
lthumb 38.2262 78.1969
rfemur -36.2879 -0.90965 9.31187
rtibia 37.0233
rfoot -11.3168 -27.4974
rtoes 15.6174
lfemur -45.1807 12.9322 -20.1254
ltibia 47.2443
lfoot -14.5871 7.80239
ltoes 2.8582
1217
root 8.69167 15.4984 -16.1955 -349.37 -3.30269 -3.41202
lowerback 15.9388 0.534636 -0.24206
upperback 9.28175 0.621807 -2.04041
thorax 0.941684 0.345734 -2.09352
lowerneck -10.6823 2.63417 -1.31685
upperneck -6.10028 3.71491 1.73291
head -0.191316 1.91322 0.855856
rclavicle -5.56597e-015 -7.95139e-016
rhumerus -8.51114 42.397 -3.58924
rradius 36.5575
rwrist -52.6352
rhand 9.6672 14.4875
rfingers 7.12502
rthumb 34.8106 -12.1125
lclavicle -5.56597e-015 -7.95139e-016
lhumerus 1.51459 -32.817 1.02793
lradius 45.0383
lwrist 13.7173
lhand 13.2102 52.4128
lfingers 7.12502
lthumb 38.1643 78.1672
rfemur -36.0343 0.914358 8.27024
rtibia 35.2388
rfoot -12.1073 -28.1131
rtoes 17.486
lfemur -45.4661 13.0664 -19.9636
ltibia 47.5333
lfoot -14.6126 7.53165
ltoes 1.83104
1218
root 8.65675 15.4827 -16.1665 -349.345 -2.86637 -3.71063
lowerback 15.8178 0.53631 0.175014
upperback 9.48307 0.685161 -1.90654
thorax 1.22614 0.393556 -2.19521
lowerneck -10.7523 2.55118 -1.53148
upperneck -5.94267 3.6307 1.93521
head -0.135801 1.87752 0.956086
rclavicle -3.97569e-015 -3.18055e-015
rhumerus -8.69531 43.4053 -3.83496
rradius 37.6225
rwrist -53.8706
rhand 9.74937 14.6295
rfingers 7.12502
rthumb 34.8886 -11.9525
lclavicle -3.97569e-015 -3.18055e-015
lhumerus 1.8172 -34.2117 0.818283
lradius 47.0126
lwrist 15.0477
lhand 13.3176 52.2051
lfingers 7.12502
lthumb 38.2657 77.9316
rfemur -35.8055 2.44798 7.51888
rtibia 33.7095
rfoot -12.5924 -28.3746
rtoes 18.6257
lfemur -45.7179 13.2252 -19.6134
ltibia 47.869
lfoot -14.6994 7.20359
ltoes 1.175
1219
root 8.61724 15.4709 -16.1376 -349.511 -2.42574 -3.62783
lowerback 15.9365 0.573499 0.115871
upperback 9.67548 0.730665 -1.83022
thorax 1.37024 0.414529 -2.08895
lowerneck -11.013 2.4847 -1.66873
upperneck -5.49147 3.55582 2.07048
head 0.0455195 1.84551 1.03023
rclavicle 2.54444e-014 -2.38542e-014
rhumerus -8.94265 44.6311 -4.05137
rradius 38.9028
rwrist -55.255
rhand 9.44059 14.3766
rfingers 7.12502
rthumb 34.5956 -12.2729
lclavicle 2.54444e-014 -2.38542e-014
lhumerus 2.25811 -35.6942 0.524202
lradius 48.8821
lwrist 16.2112
lhand 13.8216 51.7589
lfingers 7.12502
lthumb 38.7413 77.3525
rfemur -35.4708 3.81401 6.43998
rtibia 32.4106
rfoot -12.9306 -28.5437
rtoes 19.5173
lfemur -45.7009 13.3003 -19.6179
ltibia 48.2264
lfoot -14.8956 6.83882
ltoes 1.13073
1220
root 8.57615 15.4556 -16.1112 -349.81 -1.92173 -3.44087
lowerback 16.3071 0.581085 0.0295557
upperback 9.82356 0.730488 -1.8466
thorax 1.33559 0.413257 -2.06207
lowerneck -10.9449 2.42343 -1.58658
upperneck -5.28732 3.462 2.1107
head 0.101321 1.79733 1.02748
rclavicle 5.56597e-015 9.54166e-015
rhumerus -9.32677 45.9635 -4.45456
rradius 40.28
rwrist -56.5824
rhand 9.01356 14.2586
rfingers 7.12502
rthumb 34.1901 -12.4828
lclavicle 5.56597e-015 9.54166e-015
lhumerus 2.9732 -37.1937 -0.00629977
lradius 50.6712
lwrist 17.4506
lhand 14.4307 51.5697
lfingers 7.12502
lthumb 39.3155 76.9986
rfemur -35.0463 4.97734 5.40261
rtibia 31.3429
rfoot -13.4331 -28.4573
rtoes 20.3197
lfemur -45.5406 13.1991 -19.645
ltibia 48.5836
lfoot -15.0642 6.48223
ltoes 1.16854
